<svg xmlns="http://www.w3.org/2000/svg" xmlns:xlink="http://www.w3.org/1999/xlink" width="500" zoomAndPan="magnify" viewBox="0 0 375 374.999991" height="500" preserveAspectRatio="xMidYMid meet" version="1.0"><defs><clipPath id="f191b72b6b"><path d="M 22.070312 220 L 217 220 L 217 360 L 22.070312 360 Z M 22.070312 220 " clip-rule="nonzero"/></clipPath></defs><path fill="#264f83" d="M 276 284.308594 L 276 308.441406 C 276 311.0625 273.902344 313.6875 270.753906 313.6875 L 227.207031 313.6875 C 226.160156 306.34375 230.882812 283.78125 217.765625 258.074219 L 240.324219 258.074219 L 246.097656 279.058594 L 271.28125 279.058594 C 273.902344 279.058594 276 281.160156 276 284.308594 Z M 276 284.308594 " fill-opacity="1" fill-rule="nonzero"/><path fill="#264f83" d="M 341.058594 27.226562 L 83.980469 27.226562 C 74.535156 27.226562 67.191406 35.097656 67.191406 44.015625 L 67.191406 57.65625 C 70.335938 55.035156 74.011719 52.933594 77.683594 50.835938 L 77.683594 44.015625 C 77.683594 40.34375 80.832031 37.71875 83.980469 37.71875 L 341.058594 37.71875 C 344.730469 37.71875 347.355469 40.34375 347.355469 44.015625 L 347.355469 191.441406 L 183.664062 191.441406 C 175.269531 193.542969 166.875 195.117188 159.003906 195.117188 L 156.378906 197.738281 C 151.660156 202.984375 146.414062 207.183594 141.164062 210.332031 C 170.023438 210.855469 195.730469 225.019531 211.46875 247.582031 L 341.058594 247.582031 C 350.503906 247.582031 357.847656 239.710938 357.847656 230.792969 L 357.847656 44.015625 C 357.847656 34.574219 349.976562 27.226562 341.058594 27.226562 Z M 212.519531 229.21875 C 207.273438 229.21875 203.074219 225.019531 203.074219 219.773438 C 203.074219 214.527344 207.273438 210.332031 212.519531 210.332031 C 217.765625 210.332031 221.960938 214.527344 221.960938 219.773438 C 221.960938 225.019531 217.765625 229.21875 212.519531 229.21875 Z M 212.519531 229.21875 " fill-opacity="1" fill-rule="nonzero"/><path fill="#264f83" d="M 163.726562 167.308594 C 164.25 165.734375 164.773438 164.6875 165.300781 163.113281 C 179.464844 161.011719 182.089844 130.582031 170.023438 122.1875 C 165.300781 94.382812 143.789062 73.921875 119.128906 73.921875 C 93.945312 73.921875 72.960938 94.382812 68.238281 122.1875 C 56.171875 130.582031 58.796875 160.488281 72.960938 163.113281 C 81.355469 185.148438 98.667969 206.660156 119.128906 206.660156 C 130.671875 206.660156 140.117188 200.363281 148.511719 191.441406 C 140.640625 190.394531 133.296875 188.296875 127.523438 184.621094 C 124.902344 185.671875 122.277344 186.195312 119.65625 186.195312 C 107.589844 186.195312 97.09375 176.226562 97.09375 163.636719 C 97.09375 151.046875 107.0625 141.078125 119.65625 141.078125 C 132.246094 141.078125 142.214844 151.046875 142.214844 163.636719 C 142.214844 164.160156 142.214844 164.6875 142.214844 165.210938 C 148.511719 167.832031 156.90625 168.359375 163.726562 167.308594 Z M 163.726562 167.308594 " fill-opacity="1" fill-rule="nonzero"/><g clip-path="url(#f191b72b6b)"><path fill="#264f83" d="M 140.117188 220.824219 L 99.195312 220.824219 C 56.695312 220.824219 22.070312 255.449219 22.070312 297.949219 L 22.070312 334.671875 C 22.070312 336.773438 23.644531 338.871094 25.21875 339.394531 C 85.550781 364.578125 149.035156 366.675781 213.566406 339.394531 C 215.667969 338.347656 216.714844 336.773438 216.714844 334.671875 L 216.714844 297.949219 C 216.714844 255.449219 182.613281 220.824219 140.117188 220.824219 Z M 140.117188 220.824219 " fill-opacity="1" fill-rule="nonzero"/></g><path fill="#264f83" d="M 42.53125 175.703125 L 43.054688 175.703125 C 51.449219 175.703125 58.269531 168.882812 58.269531 160.488281 L 58.269531 144.226562 C 58.269531 137.402344 54.074219 132.15625 48.300781 130.058594 C 52.5 91.234375 82.40625 61.328125 119.128906 61.328125 C 155.855469 61.328125 186.285156 90.710938 189.957031 129.535156 C 184.1875 131.632812 179.988281 137.402344 179.988281 143.699219 L 179.988281 159.964844 C 179.988281 161.539062 179.988281 162.585938 180.515625 163.636719 C 181.039062 165.734375 182.089844 167.832031 183.136719 169.40625 C 170.546875 173.605469 149.558594 178.328125 134.34375 168.359375 C 134.871094 166.785156 135.394531 165.210938 135.394531 163.636719 C 135.394531 155.242188 128.574219 147.898438 119.65625 147.898438 C 111.261719 147.898438 103.914062 155.242188 103.914062 163.636719 C 103.914062 172.554688 111.261719 179.375 119.65625 179.375 C 122.804688 179.375 125.425781 178.328125 128.050781 176.753906 C 146.9375 189.871094 176.316406 185.148438 196.777344 175.179688 C 205.171875 174.65625 211.46875 168.359375 211.46875 159.964844 L 211.46875 143.699219 C 211.46875 136.878906 206.746094 131.109375 200.453125 129.007812 C 196.253906 84.414062 161.101562 50.3125 119.128906 50.3125 C 77.160156 50.3125 42.007812 84.414062 37.808594 129.007812 C 32.039062 131.109375 27.316406 136.878906 27.316406 144.226562 L 27.316406 160.488281 C 27.316406 168.882812 34.136719 175.703125 42.53125 175.703125 Z M 42.53125 175.703125 " fill-opacity="1" fill-rule="nonzero"/><path fill="#264f83" d="M 322.171875 151.570312 C 322.171875 154.191406 320.070312 156.816406 316.925781 156.816406 L 260.261719 156.816406 C 257.636719 156.816406 255.015625 154.191406 255.015625 151.570312 C 255.015625 148.945312 257.636719 146.324219 260.261719 146.324219 L 316.925781 146.324219 C 320.070312 146.324219 322.171875 148.421875 322.171875 151.570312 Z M 322.171875 151.570312 " fill-opacity="1" fill-rule="nonzero"/><path fill="#264f83" d="M 316.925781 80.742188 L 232.457031 80.742188 C 229.308594 80.742188 227.207031 78.644531 227.207031 75.496094 C 227.207031 72.347656 229.308594 70.25 232.457031 70.25 L 317.449219 70.25 C 320.597656 70.25 322.695312 72.347656 322.695312 75.496094 C 322.171875 78.117188 320.070312 80.742188 316.925781 80.742188 Z M 316.925781 80.742188 " fill-opacity="1" fill-rule="nonzero"/><path fill="#264f83" d="M 322.171875 113.269531 C 322.171875 116.417969 320.070312 118.515625 316.925781 118.515625 L 251.34375 118.515625 C 248.195312 118.515625 246.097656 116.417969 246.097656 113.269531 C 246.097656 110.121094 248.195312 108.023438 251.34375 108.023438 L 316.925781 108.023438 C 320.070312 108.023438 322.171875 110.648438 322.171875 113.269531 Z M 322.171875 113.269531 " fill-opacity="1" fill-rule="nonzero"/></svg>