<svg xmlns="http://www.w3.org/2000/svg" xmlns:xlink="http://www.w3.org/1999/xlink" width="500" zoomAndPan="magnify" viewBox="0 0 375 374.999991" height="500" preserveAspectRatio="xMidYMid meet" version="1.0"><defs><clipPath id="fe91d848ec"><path d="M 22 29.132812 L 362 29.132812 L 362 337.382812 L 22 337.382812 Z M 22 29.132812 " clip-rule="nonzero"/></clipPath></defs><g clip-path="url(#fe91d848ec)"><path fill="#264f83" d="M 342.578125 236.246094 L 41.652344 236.246094 L 41.652344 48.425781 L 342.578125 48.425781 Z M 225.191406 267.191406 L 159.039062 267.191406 C 155.503906 267.191406 152.632812 264.328125 152.632812 260.792969 C 152.632812 257.257812 155.503906 254.386719 159.039062 254.386719 L 225.191406 254.386719 C 228.738281 254.386719 231.601562 257.257812 231.601562 260.792969 C 231.601562 264.328125 228.738281 267.191406 225.191406 267.191406 Z M 350.804688 29.222656 L 33.425781 29.222656 C 27.371094 29.222656 22.441406 34.15625 22.441406 40.207031 L 22.441406 274.351562 C 22.441406 280.402344 27.371094 285.335938 33.425781 285.335938 L 181.441406 285.335938 L 181.441406 314.824219 L 163.5625 314.824219 C 163.066406 314.824219 162.582031 314.976562 162.175781 315.265625 L 136.519531 333.214844 C 134.585938 334.574219 135.539062 337.625 137.917969 337.625 L 246.3125 337.625 C 248.691406 337.625 249.644531 334.574219 247.710938 333.214844 L 222.054688 315.265625 C 221.648438 314.976562 221.164062 314.824219 220.667969 314.824219 L 202.789062 314.824219 L 202.789062 285.335938 L 350.804688 285.335938 C 356.859375 285.335938 361.789062 280.402344 361.789062 274.351562 L 361.789062 40.207031 C 361.789062 34.15625 356.859375 29.222656 350.804688 29.222656 " fill-opacity="1" fill-rule="nonzero"/></g><path fill="#264f83" d="M 113.863281 97.277344 C 127.425781 97.277344 138.457031 108.316406 138.457031 121.871094 C 138.457031 135.4375 127.425781 146.46875 113.863281 146.46875 C 100.304688 146.46875 89.277344 135.4375 89.277344 121.871094 C 89.277344 108.316406 100.304688 97.277344 113.863281 97.277344 Z M 78.117188 142.824219 L 70.390625 152.925781 L 82.816406 165.351562 L 92.917969 157.628906 C 96.160156 159.546875 99.679688 161.023438 103.40625 161.992188 L 105.085938 174.578125 L 122.644531 174.578125 L 124.324219 161.992188 C 128.054688 161.023438 131.570312 159.546875 134.816406 157.628906 L 144.914062 165.351562 L 157.339844 152.925781 L 149.617188 142.824219 C 151.535156 139.582031 153.011719 136.066406 153.992188 132.335938 L 166.566406 130.65625 L 166.566406 113.089844 L 153.992188 111.417969 C 153.011719 107.6875 151.535156 104.171875 149.617188 100.917969 L 157.339844 90.828125 L 144.914062 78.402344 L 134.816406 86.125 C 131.570312 84.207031 128.054688 82.734375 124.324219 81.753906 L 122.644531 69.175781 L 105.085938 69.175781 L 103.40625 81.753906 C 99.679688 82.734375 96.160156 84.207031 92.917969 86.125 L 82.816406 78.402344 L 70.390625 90.828125 L 78.117188 100.917969 C 76.199219 104.171875 74.722656 107.6875 73.742188 111.417969 L 61.164062 113.089844 L 61.164062 130.65625 L 73.742188 132.335938 C 74.722656 136.066406 76.199219 139.582031 78.117188 142.824219 " fill-opacity="1" fill-rule="nonzero"/><path fill="#264f83" d="M 287.679688 156.53125 L 309.667969 178.519531 L 292.746094 195.441406 L 295.980469 205.605469 L 323.066406 178.519531 L 294.378906 149.84375 L 287.679688 156.53125 " fill-opacity="1" fill-rule="nonzero"/><path fill="#264f83" d="M 258.316406 161.597656 L 255.082031 151.433594 L 227.996094 178.519531 L 256.671875 207.207031 L 263.371094 200.496094 L 241.390625 178.519531 L 258.316406 161.597656 " fill-opacity="1" fill-rule="nonzero"/><path fill="#264f83" d="M 259.640625 141.730469 L 283.792969 217.738281 L 291.417969 215.308594 L 267.265625 139.308594 L 259.640625 141.730469 " fill-opacity="1" fill-rule="nonzero"/><path fill="#264f83" d="M 323.066406 64.652344 L 180.539062 64.652344 L 180.539062 75.964844 L 323.066406 75.964844 L 323.066406 64.652344 " fill-opacity="1" fill-rule="nonzero"/><path fill="#264f83" d="M 203.691406 186.816406 L 61.164062 186.816406 L 61.164062 198.128906 L 203.691406 198.128906 L 203.691406 186.816406 " fill-opacity="1" fill-rule="nonzero"/><path fill="#264f83" d="M 119.984375 218.492188 L 203.691406 218.492188 L 203.691406 207.179688 L 119.984375 207.179688 L 119.984375 218.492188 " fill-opacity="1" fill-rule="nonzero"/><path fill="#264f83" d="M 214.472656 98.585938 L 323.066406 98.585938 L 323.066406 87.273438 L 214.472656 87.273438 L 214.472656 98.585938 " fill-opacity="1" fill-rule="nonzero"/><path fill="#264f83" d="M 230.308594 121.210938 L 323.066406 121.210938 L 323.066406 109.898438 L 230.308594 109.898438 L 230.308594 121.210938 " fill-opacity="1" fill-rule="nonzero"/></svg>