<svg xmlns="http://www.w3.org/2000/svg" xmlns:xlink="http://www.w3.org/1999/xlink" width="500" zoomAndPan="magnify" viewBox="0 0 375 374.999991" height="500" preserveAspectRatio="xMidYMid meet" version="1.0"><defs><clipPath id="3c4e2ce89e"><path d="M 18.496094 18.496094 L 317 18.496094 L 317 262 L 18.496094 262 Z M 18.496094 18.496094 " clip-rule="nonzero"/></clipPath><clipPath id="c08586ac8b"><path d="M 40 97 L 356.746094 97 L 356.746094 356.746094 L 40 356.746094 Z M 40 97 " clip-rule="nonzero"/></clipPath></defs><path fill="#264f83" d="M 240.476562 167.066406 L 238.042969 167.066406 C 238.042969 160.621094 236.777344 154.359375 234.285156 148.464844 C 231.875 142.773438 228.433594 137.660156 224.042969 133.273438 C 219.65625 128.886719 214.546875 125.441406 208.855469 123.035156 C 202.960938 120.539062 196.699219 119.277344 190.25 119.277344 C 183.804688 119.277344 177.542969 120.542969 171.648438 123.035156 C 165.953125 125.441406 160.84375 128.886719 156.457031 133.273438 C 152.070312 137.660156 148.625 142.769531 146.21875 148.464844 C 143.722656 154.359375 142.460938 160.621094 142.460938 167.066406 L 140.023438 167.066406 C 132.039062 167.066406 125.566406 173.542969 125.566406 181.527344 L 125.566406 245.347656 C 125.566406 253.332031 132.039062 259.804688 140.023438 259.804688 L 240.476562 259.804688 C 248.464844 259.804688 254.9375 253.332031 254.9375 245.347656 L 254.9375 181.527344 C 254.9375 173.542969 248.464844 167.066406 240.476562 167.066406 Z M 195.507812 214 L 195.507812 224.324219 C 195.507812 227.226562 193.152344 229.578125 190.25 229.578125 C 187.347656 229.578125 184.996094 227.226562 184.996094 224.324219 L 184.996094 214 C 180.183594 211.957031 176.8125 207.183594 176.8125 201.625 C 176.8125 200.375 176.980469 199.164062 177.300781 198.015625 C 178.878906 192.347656 184.078125 188.1875 190.25 188.1875 C 196.421875 188.1875 201.621094 192.347656 203.199219 198.015625 C 203.519531 199.164062 203.691406 200.375 203.691406 201.625 C 203.691406 207.183594 200.320312 211.953125 195.507812 214 Z M 156.707031 167.066406 C 156.707031 148.570312 171.753906 133.523438 190.25 133.523438 C 208.75 133.523438 223.796875 148.570312 223.796875 167.066406 Z M 156.707031 167.066406 " fill-opacity="1" fill-rule="nonzero"/><path fill="#264f83" d="M 294.332031 102.671875 C 275.691406 102.730469 257.152344 100.160156 239.246094 95.035156 C 222.019531 90.105469 205.535156 82.851562 190.25 73.476562 L 187.632812 71.875 L 185.054688 73.535156 L 184.757812 73.722656 C 168.21875 84.308594 150.21875 92.140625 131.261719 97.007812 C 114.371094 101.339844 96.953125 103.246094 79.484375 102.675781 L 75.074219 102.53125 L 74.488281 106.902344 C 72.652344 120.5 71.808594 134.023438 71.972656 147.101562 C 72.21875 166.75 74.722656 185.574219 79.40625 203.046875 C 84.976562 223.824219 93.691406 242.855469 105.308594 259.609375 C 111.910156 269.128906 119.566406 278.066406 128.058594 286.171875 C 137.179688 294.878906 147.507812 302.855469 158.757812 309.875 C 167.011719 315.023438 175.953125 319.78125 185.328125 324.011719 C 185.539062 324.101562 185.746094 324.195312 185.953125 324.289062 L 187.753906 325.09375 L 189.609375 324.421875 C 199.414062 320.863281 208.738281 316.675781 217.316406 311.972656 C 229.230469 305.445312 240.089844 297.722656 249.59375 289.019531 C 258.390625 280.960938 266.230469 271.875 272.898438 262.015625 C 284.484375 244.878906 292.851562 224.96875 297.769531 202.84375 C 304.273438 173.570312 304.757812 140.34375 299.164062 106.753906 L 298.480469 102.660156 Z M 288.238281 200.722656 C 288.167969 201.046875 288.097656 201.363281 288.023438 201.683594 L 259.371094 201.683594 L 259.371094 248.042969 C 259.371094 256.578125 252.449219 263.5 243.914062 263.5 L 189.90625 263.5 L 189.90625 313.890625 C 189.316406 314.117188 188.726562 314.339844 188.132812 314.5625 C 179.59375 310.652344 171.457031 306.292969 163.925781 301.59375 C 126.023438 277.9375 100.871094 244.328125 89.152344 201.683594 L 121.074219 201.683594 L 121.074219 179.820312 C 121.136719 178.4375 121.53125 173.335938 125.601562 168.890625 C 129.550781 164.582031 134.40625 163.675781 135.808594 163.464844 C 136.921875 163.402344 138.035156 163.339844 139.148438 163.277344 C 139.234375 158.921875 139.859375 155.269531 140.507812 152.539062 C 140.972656 150.59375 141.765625 147.753906 143.152344 144.476562 C 145.726562 138.394531 149.410156 132.929688 154.097656 128.242188 C 158.789062 123.550781 164.25 119.867188 170.335938 117.296875 C 176.558594 114.664062 183.160156 113.3125 189.960938 113.277344 L 189.960938 84.664062 C 204.628906 93.121094 220.277344 99.761719 236.558594 104.421875 C 254.011719 109.414062 272.027344 112.097656 290.179688 112.40625 C 292.242188 126.011719 293.273438 139.511719 293.273438 152.660156 C 293.269531 169.445312 291.589844 185.644531 288.238281 200.722656 Z M 288.238281 200.722656 " fill-opacity="1" fill-rule="nonzero"/><path fill="#264f83" d="M 163.199219 163.777344 L 189.957031 163.777344 L 189.957031 139.710938 C 175.183594 139.804688 163.199219 150.566406 163.199219 163.777344 Z M 163.199219 163.777344 " fill-opacity="1" fill-rule="nonzero"/><g clip-path="url(#3c4e2ce89e)"><path fill="#264f83" d="M 45.914062 252.679688 C 36.742188 232.835938 31.617188 210.75 31.617188 187.492188 C 31.617188 101.542969 101.542969 31.617188 187.492188 31.617188 C 207.007812 31.617188 224.0625 35.835938 229.382812 37.332031 C 245.363281 41.835938 258.96875 48.492188 270.261719 55.667969 C 268.832031 58.761719 268.035156 62.207031 268.035156 65.835938 C 268.035156 79.246094 278.90625 90.121094 292.320312 90.121094 C 297.289062 90.121094 301.910156 88.625 305.757812 86.066406 C 309.511719 83.566406 312.53125 80.050781 314.421875 75.910156 C 315.824219 72.84375 316.605469 69.429688 316.605469 65.835938 C 316.605469 52.421875 305.730469 41.550781 292.320312 41.550781 C 287.445312 41.550781 282.910156 42.984375 279.105469 45.457031 C 270.90625 40.160156 262.234375 35.5625 253.277344 31.773438 C 232.4375 22.957031 210.300781 18.488281 187.492188 18.488281 C 164.679688 18.488281 142.546875 22.960938 121.707031 31.773438 C 111.691406 36.007812 102.03125 41.253906 92.996094 47.355469 C 84.046875 53.402344 75.632812 60.34375 67.988281 67.988281 C 60.34375 75.636719 53.402344 84.046875 47.355469 92.996094 C 41.253906 102.03125 36.007812 111.691406 31.773438 121.707031 C 22.957031 142.546875 18.488281 164.679688 18.488281 187.492188 C 18.488281 210.300781 22.960938 232.4375 31.773438 253.277344 C 32.53125 255.070312 33.324219 256.847656 34.144531 258.617188 C 36.09375 260.863281 39.195312 261.660156 41.816406 260.632812 C 44.835938 259.449219 46.640625 256.074219 45.914062 252.679688 Z M 45.914062 252.679688 " fill-opacity="1" fill-rule="nonzero"/></g><g clip-path="url(#c08586ac8b)"><path fill="#264f83" d="M 343.207031 121.707031 C 340.007812 114.136719 336.230469 106.773438 331.941406 99.726562 C 329.601562 96.753906 325.351562 96.242188 322.574219 98.359375 C 320.101562 100.242188 319.285156 103.832031 320.8125 106.804688 C 326.34375 115.90625 333.074219 129.085938 337.746094 145.960938 C 337.746094 145.960938 343.367188 166.46875 343.367188 187.492188 C 343.367188 273.441406 273.441406 343.363281 187.492188 343.363281 C 168.152344 343.363281 152.535156 339.621094 145.578125 337.640625 C 120.953125 330.628906 101.578125 318.289062 87.0625 305.882812 C 88.214844 303.054688 88.851562 299.960938 88.851562 296.71875 C 88.851562 283.304688 77.980469 272.433594 64.566406 272.433594 C 62.121094 272.433594 59.757812 272.796875 57.535156 273.46875 C 57.535156 273.46875 57.53125 273.46875 57.53125 273.46875 C 47.550781 276.488281 40.285156 285.753906 40.285156 296.71875 C 40.285156 310.128906 51.15625 321.003906 64.570312 321.003906 C 69.742188 321.003906 74.535156 319.382812 78.472656 316.628906 C 83.117188 320.554688 87.972656 324.230469 92.996094 327.625 C 102.03125 333.730469 111.691406 338.972656 121.707031 343.207031 C 142.546875 352.023438 164.679688 356.492188 187.492188 356.492188 C 210.304688 356.492188 232.4375 352.023438 253.277344 343.207031 C 263.292969 338.972656 272.953125 333.730469 281.988281 327.625 C 290.933594 321.582031 299.347656 314.640625 306.992188 306.992188 C 314.640625 299.347656 321.582031 290.933594 327.625 281.984375 C 333.730469 272.949219 338.972656 263.292969 343.210938 253.277344 C 352.023438 232.4375 356.492188 210.304688 356.492188 187.492188 C 356.492188 164.679688 352.023438 142.546875 343.207031 121.707031 Z M 343.207031 121.707031 " fill-opacity="1" fill-rule="nonzero"/></g></svg>