<svg xmlns="http://www.w3.org/2000/svg" xmlns:xlink="http://www.w3.org/1999/xlink" width="500" zoomAndPan="magnify" viewBox="0 0 375 374.999991" height="500" preserveAspectRatio="xMidYMid meet" version="1.0"><defs><clipPath id="f1f5ca8892"><path d="M 12.9375 32 L 371.4375 32 L 371.4375 345.6875 L 12.9375 345.6875 Z M 12.9375 32 " clip-rule="nonzero"/></clipPath></defs><g clip-path="url(#f1f5ca8892)"><path fill="#264f83" d="M 218.503906 120.894531 C 214.984375 117.164062 211.058594 113.917969 206.730469 111.160156 C 202.40625 108.402344 197.808594 106.214844 192.9375 104.597656 C 181.8125 100.972656 170.402344 99.242188 158.703125 99.402344 C 152.550781 99.285156 146.445312 99.753906 140.386719 100.8125 C 134.324219 101.867188 128.421875 103.492188 122.671875 105.683594 C 117.636719 107.675781 112.890625 110.214844 108.4375 113.292969 C 103.980469 116.375 99.929688 119.917969 96.285156 123.921875 C 92.617188 128.074219 89.429688 132.566406 86.722656 137.398438 C 84.011719 142.230469 81.84375 147.292969 80.214844 152.589844 C 76.496094 164.769531 74.726562 177.230469 74.90625 189.964844 C 74.675781 203.175781 76.332031 216.144531 79.878906 228.871094 C 81.328125 234.019531 83.347656 238.933594 85.929688 243.617188 C 88.507812 248.300781 91.589844 252.628906 95.164062 256.605469 C 98.671875 260.335938 102.578125 263.585938 106.886719 266.355469 C 111.191406 269.125 115.769531 271.332031 120.617188 272.976562 C 131.96875 276.699219 143.617188 278.453125 155.5625 278.246094 C 161.683594 278.355469 167.761719 277.886719 173.796875 276.84375 C 179.832031 275.800781 185.714844 274.199219 191.445312 272.042969 C 196.488281 270.066406 201.242188 267.539062 205.699219 264.457031 C 210.15625 261.375 214.199219 257.824219 217.832031 253.800781 C 221.492188 249.601562 224.671875 245.066406 227.371094 240.191406 C 230.066406 235.3125 232.21875 230.207031 233.828125 224.875 C 237.519531 212.484375 239.277344 199.828125 239.097656 186.898438 C 239.328125 173.851562 237.632812 161.054688 234.015625 148.515625 C 232.503906 143.386719 230.4375 138.492188 227.820312 133.828125 C 225.199219 129.167969 222.09375 124.855469 218.503906 120.894531 Z M 194.210938 210.597656 C 193.054688 216.753906 190.8125 222.484375 187.480469 227.789062 C 185.953125 230.125 184.164062 232.242188 182.117188 234.140625 C 180.066406 236.035156 177.820312 237.65625 175.371094 239 C 172.449219 240.476562 169.394531 241.566406 166.195312 242.265625 C 163 242.96875 159.769531 243.265625 156.496094 243.148438 C 149.894531 243.359375 143.578125 242.113281 137.546875 239.414062 C 135.175781 238.261719 133.007812 236.808594 131.046875 235.046875 C 129.082031 233.289062 127.398438 231.292969 126 229.058594 C 122.789062 223.742188 120.65625 218.027344 119.609375 211.90625 C 118.207031 204.054688 117.535156 196.144531 117.589844 188.171875 C 117.578125 181.003906 118.25 173.902344 119.609375 166.867188 C 120.773438 160.796875 123.015625 155.152344 126.335938 149.9375 C 127.875 147.601562 129.671875 145.488281 131.726562 143.589844 C 133.78125 141.695312 136.03125 140.070312 138.484375 138.722656 C 141.367188 137.242188 144.394531 136.148438 147.558594 135.441406 C 150.726562 134.730469 153.929688 134.429688 157.171875 134.535156 C 160.386719 134.429688 163.574219 134.691406 166.730469 135.324219 C 169.886719 135.953125 172.929688 136.9375 175.859375 138.273438 C 178.230469 139.46875 180.40625 140.953125 182.386719 142.730469 C 184.363281 144.503906 186.074219 146.507812 187.519531 148.738281 C 190.761719 153.980469 192.90625 159.636719 193.949219 165.707031 C 195.472656 173.34375 196.269531 181.058594 196.339844 188.84375 C 196.363281 196.097656 195.691406 203.285156 194.320312 210.410156 Z M 195.144531 55.675781 C 193.890625 54.425781 192.582031 53.238281 191.210938 52.117188 C 189.84375 50.992188 188.421875 49.941406 186.953125 48.960938 C 185.480469 47.976562 183.960938 47.070312 182.402344 46.234375 C 180.839844 45.402344 179.242188 44.648438 177.605469 43.96875 C 175.972656 43.292969 174.308594 42.699219 172.613281 42.183594 C 170.921875 41.671875 169.207031 41.242188 167.46875 40.898438 C 165.734375 40.550781 163.984375 40.292969 162.222656 40.121094 C 160.460938 39.945312 158.695312 39.859375 156.925781 39.859375 C 155.15625 39.859375 153.390625 39.945312 151.628906 40.121094 C 149.871094 40.292969 148.121094 40.550781 146.386719 40.898438 C 144.648438 41.242188 142.933594 41.671875 141.242188 42.183594 C 139.546875 42.699219 137.882812 43.292969 136.246094 43.96875 C 134.613281 44.648438 133.015625 45.402344 131.453125 46.234375 C 129.890625 47.070312 128.375 47.976562 126.902344 48.960938 C 125.429688 49.941406 124.011719 50.992188 122.640625 52.117188 C 121.273438 53.238281 119.964844 54.425781 118.710938 55.675781 C 118.359375 56.023438 117.957031 56.292969 117.5 56.480469 C 117.042969 56.667969 116.570312 56.761719 116.074219 56.761719 C 115.582031 56.761719 115.105469 56.667969 114.652344 56.480469 C 114.195312 56.292969 113.792969 56.023438 113.441406 55.675781 C 113.085938 55.324219 112.8125 54.917969 112.621094 54.457031 C 112.429688 54 112.335938 53.519531 112.335938 53.019531 C 112.335938 52.523438 112.429688 52.042969 112.621094 51.582031 C 112.8125 51.125 113.085938 50.71875 113.441406 50.367188 C 114.867188 48.945312 116.359375 47.59375 117.917969 46.320312 C 119.476562 45.042969 121.09375 43.84375 122.769531 42.726562 C 124.445312 41.609375 126.171875 40.578125 127.949219 39.628906 C 129.726562 38.679688 131.546875 37.820312 133.40625 37.050781 C 135.269531 36.28125 137.164062 35.605469 139.089844 35.019531 C 141.019531 34.4375 142.96875 33.949219 144.945312 33.554688 C 146.921875 33.164062 148.914062 32.867188 150.917969 32.671875 C 152.921875 32.472656 154.929688 32.375 156.945312 32.375 C 158.960938 32.375 160.96875 32.472656 162.976562 32.671875 C 164.980469 32.867188 166.96875 33.164062 168.945312 33.554688 C 170.921875 33.949219 172.875 34.4375 174.800781 35.019531 C 176.730469 35.605469 178.625 36.28125 180.484375 37.050781 C 182.347656 37.820312 184.167969 38.679688 185.941406 39.628906 C 187.71875 40.578125 189.445312 41.609375 191.121094 42.726562 C 192.800781 43.84375 194.414062 45.042969 195.972656 46.320312 C 197.53125 47.59375 199.023438 48.945312 200.449219 50.367188 C 200.804688 50.71875 201.078125 51.125 201.269531 51.582031 C 201.460938 52.042969 201.554688 52.523438 201.554688 53.019531 C 201.554688 53.519531 201.460938 54 201.269531 54.457031 C 201.078125 54.917969 200.804688 55.324219 200.449219 55.675781 C 200.101562 56.027344 199.695312 56.300781 199.234375 56.492188 C 198.773438 56.683594 198.296875 56.78125 197.796875 56.78125 C 197.300781 56.78125 196.820312 56.683594 196.359375 56.492188 C 195.898438 56.300781 195.496094 56.027344 195.144531 55.675781 Z M 181.128906 69.578125 C 180.339844 68.792969 179.511719 68.042969 178.648438 67.339844 C 177.785156 66.632812 176.890625 65.96875 175.960938 65.351562 C 175.035156 64.734375 174.078125 64.160156 173.09375 63.636719 C 172.109375 63.113281 171.101562 62.636719 170.070312 62.210938 C 169.039062 61.785156 167.992188 61.410156 166.925781 61.085938 C 165.855469 60.765625 164.777344 60.496094 163.683594 60.277344 C 162.589844 60.058594 161.488281 59.898438 160.378906 59.789062 C 159.265625 59.679688 158.15625 59.625 157.039062 59.625 C 155.925781 59.625 154.8125 59.679688 153.703125 59.789062 C 152.59375 59.898438 151.488281 60.058594 150.394531 60.277344 C 149.300781 60.496094 148.222656 60.765625 147.15625 61.085938 C 146.085938 61.410156 145.039062 61.785156 144.007812 62.210938 C 142.976562 62.636719 141.96875 63.113281 140.984375 63.636719 C 140 64.160156 139.046875 64.734375 138.117188 65.351562 C 137.1875 65.96875 136.292969 66.632812 135.429688 67.339844 C 134.566406 68.042969 133.742188 68.792969 132.949219 69.578125 C 132.601562 69.929688 132.199219 70.203125 131.742188 70.394531 C 131.28125 70.582031 130.804688 70.679688 130.3125 70.683594 C 129.816406 70.683594 129.339844 70.589844 128.878906 70.402344 C 128.421875 70.214844 128.015625 69.945312 127.664062 69.597656 C 127.3125 69.246094 127.039062 68.84375 126.847656 68.386719 C 126.65625 67.929688 126.5625 67.453125 126.558594 66.957031 C 126.558594 66.460938 126.648438 65.984375 126.839844 65.523438 C 127.027344 65.066406 127.292969 64.660156 127.644531 64.308594 C 128.605469 63.347656 129.613281 62.433594 130.667969 61.570312 C 131.71875 60.707031 132.8125 59.898438 133.945312 59.144531 C 135.078125 58.386719 136.242188 57.6875 137.445312 57.046875 C 138.644531 56.40625 139.875 55.824219 141.132812 55.304688 C 142.390625 54.785156 143.671875 54.328125 144.972656 53.933594 C 146.277344 53.535156 147.59375 53.207031 148.929688 52.941406 C 150.265625 52.675781 151.609375 52.476562 152.964844 52.34375 C 154.320312 52.210938 155.679688 52.144531 157.039062 52.144531 C 158.402344 52.144531 159.757812 52.210938 161.113281 52.34375 C 162.46875 52.476562 163.8125 52.675781 165.148438 52.941406 C 166.484375 53.207031 167.800781 53.535156 169.105469 53.933594 C 170.40625 54.328125 171.6875 54.785156 172.945312 55.304688 C 174.203125 55.824219 175.433594 56.40625 176.632812 57.046875 C 177.835938 57.6875 179 58.386719 180.132812 59.144531 C 181.265625 59.898438 182.359375 60.707031 183.410156 61.570312 C 184.464844 62.433594 185.472656 63.347656 186.433594 64.308594 C 186.699219 64.570312 186.917969 64.863281 187.09375 65.191406 C 187.269531 65.519531 187.394531 65.863281 187.46875 66.226562 C 187.539062 66.589844 187.558594 66.957031 187.523438 67.328125 C 187.488281 67.695312 187.398438 68.050781 187.253906 68.394531 C 187.113281 68.738281 186.921875 69.054688 186.6875 69.339844 C 186.453125 69.625 186.179688 69.871094 185.871094 70.078125 C 185.558594 70.28125 185.226562 70.4375 184.871094 70.542969 C 184.515625 70.648438 184.152344 70.703125 183.78125 70.699219 C 182.742188 70.695312 181.855469 70.320312 181.128906 69.578125 Z M 157.058594 72.121094 C 158.476562 72.117188 159.878906 72.25 161.269531 72.527344 C 162.65625 72.800781 164.007812 73.207031 165.316406 73.75 C 166.625 74.292969 167.867188 74.957031 169.042969 75.746094 C 170.222656 76.535156 171.308594 77.433594 172.308594 78.4375 C 172.570312 78.699219 172.789062 78.992188 172.964844 79.320312 C 173.140625 79.644531 173.265625 79.992188 173.339844 80.355469 C 173.414062 80.71875 173.429688 81.085938 173.394531 81.453125 C 173.359375 81.824219 173.269531 82.179688 173.128906 82.523438 C 172.984375 82.867188 172.796875 83.179688 172.558594 83.46875 C 172.324219 83.753906 172.050781 84 171.742188 84.203125 C 171.433594 84.410156 171.101562 84.566406 170.742188 84.671875 C 170.386719 84.777344 170.023438 84.828125 169.652344 84.828125 C 168.628906 84.8125 167.753906 84.4375 167.039062 83.707031 C 166.371094 83.074219 165.648438 82.507812 164.875 82.011719 C 164.097656 81.515625 163.285156 81.097656 162.429688 80.757812 C 161.574219 80.417969 160.695312 80.160156 159.792969 79.988281 C 158.890625 79.8125 157.976562 79.726562 157.058594 79.726562 C 156.136719 79.726562 155.226562 79.8125 154.324219 79.988281 C 153.417969 80.160156 152.539062 80.417969 151.6875 80.757812 C 150.832031 81.097656 150.015625 81.515625 149.242188 82.011719 C 148.46875 82.507812 147.746094 83.074219 147.078125 83.707031 C 146.726562 84.058594 146.324219 84.332031 145.863281 84.523438 C 145.402344 84.714844 144.921875 84.8125 144.425781 84.8125 C 143.925781 84.8125 143.449219 84.714844 142.988281 84.523438 C 142.527344 84.332031 142.121094 84.058594 141.773438 83.707031 C 141.421875 83.355469 141.15625 82.953125 140.96875 82.496094 C 140.777344 82.039062 140.683594 81.566406 140.683594 81.070312 C 140.683594 80.578125 140.777344 80.101562 140.96875 79.644531 C 141.15625 79.191406 141.421875 78.785156 141.773438 78.4375 C 142.773438 77.429688 143.863281 76.53125 145.042969 75.742188 C 146.222656 74.953125 147.46875 74.289062 148.78125 73.746094 C 150.09375 73.203125 151.445312 72.796875 152.839844 72.523438 C 154.230469 72.25 155.636719 72.113281 157.058594 72.121094 Z M 200.5625 322.160156 C 200.917969 322.511719 201.191406 322.917969 201.382812 323.378906 C 201.574219 323.839844 201.667969 324.316406 201.667969 324.816406 C 201.667969 325.3125 201.574219 325.792969 201.382812 326.253906 C 201.191406 326.714844 200.917969 327.117188 200.5625 327.46875 C 197.710938 330.332031 194.609375 332.890625 191.25 335.140625 C 187.894531 337.390625 184.347656 339.285156 180.613281 340.832031 C 176.878906 342.378906 173.03125 343.542969 169.066406 344.324219 C 165.101562 345.109375 161.097656 345.496094 157.058594 345.484375 C 153.019531 345.496094 149.019531 345.113281 145.058594 344.328125 C 141.09375 343.546875 137.25 342.382812 133.515625 340.835938 C 129.785156 339.289062 126.242188 337.390625 122.890625 335.144531 C 119.535156 332.894531 116.4375 330.335938 113.589844 327.46875 C 113.238281 327.117188 112.964844 326.714844 112.773438 326.253906 C 112.582031 325.792969 112.484375 325.3125 112.484375 324.816406 C 112.484375 324.316406 112.582031 323.839844 112.773438 323.378906 C 112.964844 322.917969 113.238281 322.511719 113.589844 322.160156 C 113.941406 321.8125 114.34375 321.546875 114.800781 321.359375 C 115.257812 321.167969 115.730469 321.074219 116.226562 321.074219 C 116.71875 321.074219 117.195312 321.167969 117.652344 321.359375 C 118.105469 321.546875 118.511719 321.8125 118.859375 322.160156 C 121.363281 324.683594 124.085938 326.9375 127.039062 328.917969 C 129.988281 330.898438 133.101562 332.566406 136.386719 333.929688 C 139.667969 335.289062 143.050781 336.3125 146.539062 337 C 150.023438 337.6875 153.542969 338.023438 157.09375 338.007812 C 160.644531 338.019531 164.160156 337.683594 167.644531 336.996094 C 171.128906 336.308594 174.507812 335.285156 177.785156 333.925781 C 181.066406 332.5625 184.179688 330.894531 187.125 328.914062 C 190.070312 326.933594 192.792969 324.683594 195.292969 322.160156 C 195.644531 321.8125 196.046875 321.546875 196.503906 321.359375 C 196.960938 321.167969 197.433594 321.074219 197.929688 321.074219 C 198.421875 321.074219 198.898438 321.167969 199.351562 321.359375 C 199.808594 321.546875 200.214844 321.8125 200.5625 322.160156 Z M 132.949219 308.070312 C 133.742188 308.859375 134.566406 309.605469 135.429688 310.3125 C 136.292969 311.019531 137.1875 311.679688 138.117188 312.296875 C 139.046875 312.917969 140 313.488281 140.984375 314.011719 C 141.96875 314.539062 142.976562 315.011719 144.007812 315.4375 C 145.039062 315.863281 146.085938 316.238281 147.15625 316.5625 C 148.222656 316.886719 149.300781 317.15625 150.394531 317.371094 C 151.488281 317.589844 152.59375 317.753906 153.703125 317.863281 C 154.8125 317.972656 155.925781 318.027344 157.039062 318.027344 C 158.15625 318.027344 159.265625 317.972656 160.378906 317.863281 C 161.488281 317.753906 162.589844 317.589844 163.683594 317.371094 C 164.777344 317.15625 165.855469 316.886719 166.925781 316.5625 C 167.992188 316.238281 169.039062 315.863281 170.070312 315.4375 C 171.101562 315.011719 172.109375 314.539062 173.09375 314.011719 C 174.078125 313.488281 175.035156 312.917969 175.960938 312.296875 C 176.890625 311.679688 177.785156 311.019531 178.648438 310.3125 C 179.511719 309.605469 180.339844 308.859375 181.128906 308.070312 C 181.480469 307.71875 181.882812 307.445312 182.34375 307.253906 C 182.804688 307.0625 183.285156 306.964844 183.78125 306.964844 C 184.28125 306.964844 184.757812 307.0625 185.21875 307.253906 C 185.679688 307.445312 186.085938 307.71875 186.433594 308.070312 C 186.785156 308.421875 187.050781 308.824219 187.238281 309.28125 C 187.429688 309.738281 187.523438 310.210938 187.523438 310.707031 C 187.523438 311.199219 187.429688 311.675781 187.238281 312.132812 C 187.050781 312.589844 186.785156 312.992188 186.433594 313.339844 C 185.472656 314.300781 184.464844 315.214844 183.410156 316.074219 C 182.355469 316.9375 181.265625 317.746094 180.132812 318.5 C 179 319.253906 177.832031 319.953125 176.632812 320.59375 C 175.429688 321.234375 174.199219 321.8125 172.941406 322.332031 C 171.683594 322.855469 170.40625 323.3125 169.101562 323.707031 C 167.800781 324.097656 166.480469 324.429688 165.148438 324.695312 C 163.8125 324.960938 162.46875 325.15625 161.113281 325.292969 C 159.757812 325.425781 158.398438 325.492188 157.039062 325.492188 C 155.679688 325.492188 154.320312 325.425781 152.964844 325.292969 C 151.613281 325.15625 150.265625 324.960938 148.933594 324.695312 C 147.597656 324.429688 146.277344 324.097656 144.976562 323.707031 C 143.671875 323.3125 142.394531 322.855469 141.136719 322.332031 C 139.878906 321.8125 138.648438 321.234375 137.449219 320.59375 C 136.246094 319.953125 135.082031 319.253906 133.949219 318.5 C 132.816406 317.746094 131.722656 316.9375 130.667969 316.074219 C 129.617188 315.214844 128.605469 314.300781 127.644531 313.339844 C 127.296875 312.992188 127.027344 312.589844 126.839844 312.132812 C 126.652344 311.675781 126.558594 311.199219 126.558594 310.707031 C 126.558594 310.210938 126.652344 309.738281 126.839844 309.28125 C 127.027344 308.824219 127.296875 308.421875 127.644531 308.070312 C 127.996094 307.71875 128.398438 307.445312 128.859375 307.253906 C 129.320312 307.0625 129.800781 306.964844 130.296875 306.964844 C 130.796875 306.964844 131.273438 307.0625 131.734375 307.253906 C 132.195312 307.445312 132.601562 307.71875 132.949219 308.070312 Z M 157.058594 305.53125 C 155.640625 305.535156 154.234375 305.398438 152.839844 305.125 C 151.449219 304.847656 150.097656 304.441406 148.785156 303.898438 C 147.472656 303.355469 146.226562 302.691406 145.046875 301.902344 C 143.867188 301.113281 142.773438 300.21875 141.773438 299.214844 C 141.421875 298.863281 141.15625 298.460938 140.96875 298.003906 C 140.777344 297.546875 140.683594 297.070312 140.683594 296.578125 C 140.683594 296.085938 140.777344 295.609375 140.96875 295.152344 C 141.15625 294.695312 141.421875 294.292969 141.773438 293.945312 C 142.121094 293.589844 142.527344 293.316406 142.988281 293.125 C 143.449219 292.933594 143.925781 292.839844 144.425781 292.839844 C 144.921875 292.839844 145.402344 292.933594 145.863281 293.125 C 146.324219 293.316406 146.726562 293.589844 147.078125 293.945312 C 147.734375 294.597656 148.449219 295.183594 149.21875 295.695312 C 149.988281 296.210938 150.800781 296.644531 151.660156 297 C 152.515625 297.351562 153.398438 297.621094 154.304688 297.800781 C 155.214844 297.980469 156.132812 298.070312 157.058594 298.070312 C 157.984375 298.070312 158.902344 297.980469 159.8125 297.800781 C 160.71875 297.621094 161.601562 297.351562 162.457031 297 C 163.3125 296.644531 164.128906 296.210938 164.898438 295.695312 C 165.667969 295.183594 166.382812 294.597656 167.039062 293.945312 C 167.203125 293.746094 167.390625 293.570312 167.59375 293.414062 C 167.796875 293.257812 168.015625 293.121094 168.25 293.011719 C 168.480469 292.898438 168.722656 292.8125 168.972656 292.75 C 169.222656 292.6875 169.472656 292.648438 169.730469 292.640625 C 169.988281 292.628906 170.246094 292.644531 170.5 292.6875 C 170.753906 292.730469 171 292.800781 171.238281 292.894531 C 171.480469 292.988281 171.707031 293.105469 171.921875 293.246094 C 172.136719 293.386719 172.335938 293.550781 172.519531 293.730469 C 172.699219 293.914062 172.863281 294.113281 173.003906 294.328125 C 173.144531 294.542969 173.261719 294.769531 173.355469 295.011719 C 173.449219 295.25 173.519531 295.496094 173.5625 295.75 C 173.605469 296.003906 173.621094 296.261719 173.609375 296.519531 C 173.601562 296.777344 173.566406 297.03125 173.503906 297.28125 C 173.441406 297.53125 173.351562 297.769531 173.242188 298.003906 C 173.128906 298.234375 172.992188 298.453125 172.835938 298.65625 C 172.679688 298.859375 172.503906 299.046875 172.308594 299.214844 C 171.308594 300.214844 170.21875 301.113281 169.042969 301.898438 C 167.863281 302.6875 166.621094 303.351562 165.3125 303.894531 C 164.003906 304.4375 162.65625 304.84375 161.265625 305.121094 C 159.878906 305.394531 158.472656 305.53125 157.058594 305.53125 Z M 52.40625 106.019531 C 53.492188 107.375 54.042969 108.917969 54.050781 110.652344 L 54.050781 266.957031 C 54.0625 268.683594 53.539062 270.230469 52.480469 271.59375 C 51.25 272.984375 49.742188 273.941406 47.960938 274.472656 C 46.042969 275.058594 44.085938 275.457031 42.089844 275.667969 C 39.222656 275.964844 36.34375 276.101562 33.457031 276.078125 C 30.597656 276.101562 27.742188 275.964844 24.898438 275.667969 C 22.890625 275.464844 20.921875 275.066406 18.992188 274.472656 C 17.234375 273.972656 15.753906 273.039062 14.546875 271.667969 C 13.457031 270.285156 12.917969 268.71875 12.9375 266.957031 L 12.9375 110.652344 C 12.960938 108.914062 13.519531 107.367188 14.621094 106.019531 C 15.859375 104.617188 17.378906 103.65625 19.179688 103.140625 C 21.097656 102.570312 23.054688 102.183594 25.046875 101.984375 C 27.878906 101.667969 30.71875 101.53125 33.570312 101.570312 C 36.457031 101.53125 39.332031 101.667969 42.203125 101.984375 C 44.191406 102.167969 46.132812 102.566406 48.035156 103.179688 C 49.8125 103.679688 51.304688 104.628906 52.519531 106.019531 Z M 371.292969 112.933594 C 371.539062 115.246094 371.652344 117.5625 371.628906 119.886719 C 371.648438 122.160156 371.535156 124.425781 371.292969 126.6875 C 371.117188 128.460938 370.71875 130.179688 370.097656 131.847656 C 369.511719 133.328125 368.601562 134.574219 367.371094 135.582031 C 366.066406 136.617188 364.585938 137.140625 362.921875 137.152344 L 325.359375 137.152344 L 325.359375 266.957031 C 325.347656 268.714844 324.785156 270.269531 323.679688 271.628906 C 322.460938 273.015625 320.964844 273.964844 319.191406 274.472656 C 317.265625 275.074219 315.296875 275.472656 313.289062 275.667969 C 307.570312 276.214844 301.851562 276.214844 296.132812 275.667969 C 294.125 275.464844 292.15625 275.066406 290.226562 274.472656 C 288.476562 273.960938 286.996094 273.027344 285.777344 271.667969 C 285.21875 271.011719 284.789062 270.277344 284.496094 269.46875 C 284.199219 268.65625 284.054688 267.820312 284.058594 266.957031 L 284.058594 137.304688 L 246.386719 137.304688 C 244.648438 137.324219 243.117188 136.777344 241.789062 135.660156 C 240.636719 134.613281 239.777344 133.367188 239.210938 131.921875 C 238.582031 130.242188 238.183594 128.507812 238.011719 126.726562 C 237.773438 124.476562 237.660156 122.222656 237.675781 119.960938 C 237.660156 117.636719 237.769531 115.320312 238.011719 113.007812 C 238.175781 111.199219 238.574219 109.441406 239.210938 107.738281 C 239.765625 106.25 240.664062 105.003906 241.902344 104 C 243.214844 102.960938 244.710938 102.449219 246.386719 102.46875 L 363.035156 102.46875 C 364.636719 102.492188 366.082031 102.976562 367.371094 103.925781 C 368.667969 104.90625 369.617188 106.152344 370.210938 107.664062 C 370.847656 109.367188 371.246094 111.125 371.40625 112.933594 Z M 371.292969 112.933594 " fill-opacity="1" fill-rule="nonzero"/></g></svg>