<svg xmlns="http://www.w3.org/2000/svg" xmlns:xlink="http://www.w3.org/1999/xlink" width="500" zoomAndPan="magnify" viewBox="0 0 375 374.999991" height="500" preserveAspectRatio="xMidYMid meet" version="1.0"><defs><clipPath id="13018b2ab6"><path d="M 20 27.203125 L 355 27.203125 L 355 358.703125 L 20 358.703125 Z M 20 27.203125 " clip-rule="nonzero"/></clipPath></defs><g clip-path="url(#13018b2ab6)"><path fill="#264f83" d="M 340.527344 172.019531 C 335.558594 170.699219 330.375 171.382812 325.898438 173.964844 C 321.433594 176.535156 318.246094 180.695312 316.914062 185.652344 L 303.710938 234.914062 C 302.011719 233.871094 300.15625 233.050781 298.167969 232.507812 C 292.800781 231.050781 287.207031 231.757812 282.40625 234.503906 L 235.375 261.402344 C 228.585938 265.296875 224.324219 272.445312 223.042969 282.105469 L 221.054688 297.042969 C 217.121094 294.941406 212.183594 296.335938 209.929688 300.226562 L 203.5 311.382812 C 201.203125 315.355469 202.566406 320.46875 206.550781 322.761719 L 266.894531 357.601562 C 268.175781 358.339844 269.601562 358.71875 271.042969 358.71875 C 271.773438 358.71875 272.5 358.625 273.214844 358.429688 C 275.367188 357.855469 277.167969 356.472656 278.277344 354.546875 L 284.71875 343.402344 C 285.835938 341.476562 286.121094 339.234375 285.550781 337.074219 C 284.976562 334.921875 283.59375 333.128906 281.667969 332.011719 L 280.367188 331.265625 C 281.738281 323.203125 285.109375 318.070312 291.613281 313.996094 L 317.640625 297.675781 C 324.945312 293.097656 329.699219 286.871094 331.769531 279.15625 L 354.148438 195.628906 C 356.90625 185.367188 350.789062 174.773438 340.527344 172.019531 Z M 216.085938 306.261719 C 216.085938 306.261719 216.078125 306.261719 216.078125 306.261719 Z M 270.277344 347.441406 L 213.660156 314.753906 L 217.941406 307.335938 L 274.558594 340.023438 Z M 344.019531 192.914062 L 321.636719 276.441406 C 320.242188 281.644531 317.203125 285.570312 312.070312 288.785156 L 286.039062 305.113281 C 278.121094 310.070312 273.195312 316.738281 270.839844 325.765625 L 230.890625 302.695312 L 233.441406 283.488281 C 234.28125 277.105469 236.6875 272.742188 240.589844 270.511719 L 287.617188 243.601562 C 289.984375 242.25 292.75 241.910156 295.414062 242.636719 C 298.078125 243.355469 300.289062 245.054688 301.640625 247.421875 C 304.449219 252.339844 302.738281 258.628906 297.820312 261.445312 L 272.703125 275.816406 C 270.183594 277.25 269.3125 280.457031 270.746094 282.976562 C 272.191406 285.488281 275.398438 286.355469 277.90625 284.921875 L 303.035156 270.550781 C 312.160156 265.328125 315.820312 254.183594 311.945312 244.695312 L 327.046875 188.367188 C 327.648438 186.113281 329.105469 184.230469 331.144531 183.039062 C 333.191406 181.863281 335.558594 181.546875 337.800781 182.148438 C 342.484375 183.410156 345.269531 188.234375 344.019531 192.914062 Z M 165.320312 300.214844 C 163.078125 296.324219 158.140625 294.941406 154.207031 297.042969 L 152.21875 282.105469 C 150.9375 272.445312 146.675781 265.296875 139.886719 261.402344 L 92.859375 234.496094 C 88.0625 231.757812 82.460938 231.050781 77.09375 232.507812 C 75.105469 233.050781 73.25 233.871094 71.550781 234.914062 L 58.347656 185.652344 C 57.015625 180.695312 53.828125 176.535156 49.363281 173.964844 C 44.886719 171.382812 39.703125 170.699219 34.746094 172.019531 C 24.472656 174.773438 18.355469 185.367188 21.113281 195.628906 L 43.492188 279.15625 C 45.5625 286.871094 50.316406 293.097656 57.621094 297.675781 L 83.648438 313.996094 C 90.152344 318.070312 93.523438 323.203125 94.894531 331.265625 L 93.59375 332.011719 C 89.609375 334.308594 88.25 339.417969 90.542969 343.402344 L 96.976562 354.546875 C 98.09375 356.472656 99.886719 357.855469 102.046875 358.429688 C 102.761719 358.625 103.492188 358.71875 104.21875 358.71875 C 105.664062 358.71875 107.085938 358.339844 108.367188 357.601562 L 168.710938 322.761719 C 170.636719 321.644531 172.019531 319.855469 172.59375 317.703125 C 173.167969 315.550781 172.878906 313.296875 171.765625 311.371094 Z M 89.222656 305.113281 L 63.191406 288.785156 C 58.058594 285.578125 55.019531 281.644531 53.625 276.441406 L 31.242188 192.914062 C 29.992188 188.234375 32.78125 183.410156 37.460938 182.148438 C 39.703125 181.546875 42.070312 181.863281 44.117188 183.039062 C 46.15625 184.21875 47.613281 186.113281 48.214844 188.367188 L 63.316406 244.695312 C 59.441406 254.183594 63.101562 265.328125 72.226562 270.550781 L 97.355469 284.921875 C 99.863281 286.355469 103.070312 285.488281 104.515625 282.976562 C 105.949219 280.457031 105.078125 277.25 102.558594 275.816406 L 77.441406 261.445312 C 72.523438 258.628906 70.8125 252.339844 73.621094 247.421875 C 74.972656 245.054688 77.183594 243.355469 79.847656 242.628906 C 82.511719 241.910156 85.289062 242.25 87.644531 243.601562 L 134.683594 270.511719 C 138.574219 272.742188 140.980469 277.105469 141.820312 283.488281 L 144.371094 302.695312 L 104.421875 325.765625 C 102.066406 316.738281 97.140625 310.070312 89.222656 305.113281 Z M 104.984375 347.441406 L 100.703125 340.023438 L 157.320312 307.335938 L 161.601562 314.753906 Z M 68.203125 157.71875 L 83.988281 157.71875 C 86.578125 168.445312 90.789062 178.605469 96.554688 188.03125 L 85.378906 199.195312 C 83.332031 201.242188 83.332031 204.5625 85.378906 206.609375 L 113.570312 234.792969 C 114.554688 235.773438 115.886719 236.328125 117.277344 236.328125 C 118.671875 236.328125 120.003906 235.773438 120.988281 234.792969 L 132.152344 223.625 C 141.585938 229.382812 151.746094 233.601562 162.460938 236.183594 L 162.460938 251.96875 C 162.460938 254.867188 164.808594 257.214844 167.707031 257.214844 L 207.566406 257.214844 C 210.453125 257.214844 212.808594 254.867188 212.808594 251.96875 L 212.808594 236.183594 C 223.523438 233.59375 233.6875 229.382812 243.109375 223.625 L 254.277344 234.792969 C 256.324219 236.839844 259.644531 236.839844 261.691406 234.792969 L 289.882812 206.609375 C 290.867188 205.628906 291.417969 204.296875 291.417969 202.902344 C 291.417969 201.511719 290.867188 200.179688 289.882812 199.195312 L 278.707031 188.019531 C 284.472656 178.59375 288.683594 168.433594 291.273438 157.71875 L 307.0625 157.71875 C 309.949219 157.71875 312.304688 155.371094 312.304688 152.472656 L 312.304688 132.550781 C 312.304688 130.769531 311.414062 129.191406 310.050781 128.25 C 308.382812 107.496094 294.738281 90.164062 276.277344 82.878906 C 283.488281 77.144531 288.121094 68.3125 288.121094 58.40625 C 288.121094 41.179688 274.097656 27.15625 256.867188 27.15625 C 239.628906 27.15625 225.613281 41.179688 225.613281 58.40625 C 225.613281 68.304688 230.234375 77.121094 237.425781 82.859375 C 230.511719 85.574219 224.191406 89.742188 218.863281 95.152344 C 215.535156 93.113281 211.988281 91.390625 208.28125 90.03125 C 216.875 83.679688 222.46875 73.476562 222.46875 61.992188 C 222.46875 42.785156 206.835938 27.15625 187.632812 27.15625 C 168.425781 27.15625 152.792969 42.785156 152.792969 61.992188 C 152.792969 73.476562 158.375 83.679688 166.980469 90.03125 C 163.273438 91.390625 159.726562 93.113281 156.386719 95.152344 C 151.070312 89.742188 144.75 85.574219 137.835938 82.859375 C 145.027344 77.121094 149.648438 68.304688 149.648438 58.40625 C 149.648438 41.179688 135.636719 27.15625 118.394531 27.15625 C 101.164062 27.15625 87.140625 41.179688 87.140625 58.40625 C 87.140625 68.3125 91.773438 77.144531 98.984375 82.878906 C 80.523438 90.164062 66.878906 107.496094 65.210938 128.25 C 63.847656 129.191406 62.957031 130.769531 62.957031 132.550781 L 62.957031 152.472656 C 62.957031 155.371094 65.3125 157.71875 68.203125 157.71875 Z M 301.816406 147.230469 L 287.054688 147.230469 C 284.554688 147.230469 282.40625 148.992188 281.914062 151.449219 C 279.453125 163.78125 274.660156 175.347656 267.664062 185.835938 C 266.269531 187.917969 266.546875 190.691406 268.308594 192.464844 L 278.757812 202.902344 L 257.984375 223.667969 L 247.546875 213.230469 C 245.773438 211.457031 243.007812 211.191406 240.929688 212.574219 C 230.4375 219.570312 218.875 224.375 206.53125 226.832031 C 204.082031 227.324219 202.320312 229.476562 202.320312 231.972656 L 202.320312 246.726562 L 172.953125 246.726562 L 172.953125 231.972656 C 172.953125 229.476562 171.179688 227.324219 168.730469 226.832031 C 156.398438 224.375 144.832031 219.578125 134.332031 212.574219 C 132.253906 211.191406 129.488281 211.464844 127.714844 213.230469 L 117.277344 223.667969 L 96.515625 202.902344 L 106.953125 192.464844 C 108.714844 190.691406 108.992188 187.925781 107.597656 185.835938 C 100.601562 175.359375 95.808594 163.78125 93.347656 151.449219 C 92.859375 149 90.707031 147.230469 88.207031 147.230469 L 73.445312 147.230469 L 73.445312 137.796875 L 120.699219 137.796875 C 123.382812 172.367188 152.371094 199.6875 187.632812 199.6875 C 222.890625 199.6875 251.878906 172.367188 254.5625 137.796875 L 301.816406 137.796875 Z M 240.589844 137.796875 C 240.601562 137.796875 240.601562 137.796875 240.609375 137.796875 C 240.621094 137.796875 240.632812 137.796875 240.640625 137.796875 L 244.03125 137.796875 C 241.378906 166.578125 217.101562 189.195312 187.632812 189.195312 C 158.160156 189.195312 133.882812 166.578125 131.230469 137.796875 Z M 256.867188 37.644531 C 268.320312 37.644531 277.628906 46.957031 277.628906 58.40625 C 277.628906 69.859375 268.320312 79.171875 256.867188 79.171875 C 245.414062 79.171875 236.101562 69.859375 236.101562 58.40625 C 236.101562 46.957031 245.414062 37.644531 256.867188 37.644531 Z M 256.867188 89.660156 C 278.492188 89.660156 296.808594 106.039062 299.417969 127.304688 L 244.503906 127.304688 C 241.09375 117.132812 235.109375 108.304688 227.40625 101.472656 C 235.355469 93.921875 245.824219 89.660156 256.867188 89.660156 Z M 163.28125 61.992188 C 163.28125 48.5625 174.203125 37.644531 187.632812 37.644531 C 201.058594 37.644531 211.980469 48.5625 211.980469 61.992188 C 211.980469 75.410156 201.058594 86.339844 187.640625 86.339844 C 187.640625 86.339844 187.632812 86.339844 187.632812 86.339844 C 187.632812 86.339844 187.621094 86.339844 187.621094 86.339844 C 174.203125 86.332031 163.28125 75.410156 163.28125 61.992188 Z M 187.632812 96.832031 L 187.640625 96.832031 C 207.789062 96.839844 225.695312 109.070312 233.308594 127.304688 L 141.953125 127.304688 C 149.566406 109.070312 167.472656 96.839844 187.621094 96.832031 Z M 118.394531 37.644531 C 129.847656 37.644531 139.160156 46.957031 139.160156 58.40625 C 139.160156 69.859375 129.847656 79.171875 118.394531 79.171875 C 106.941406 79.171875 97.632812 69.859375 97.632812 58.40625 C 97.632812 46.957031 106.941406 37.644531 118.394531 37.644531 Z M 118.394531 89.660156 C 129.4375 89.660156 139.90625 93.921875 147.855469 101.472656 C 140.152344 108.304688 134.171875 117.132812 130.757812 127.304688 L 75.84375 127.304688 C 78.457031 106.039062 96.769531 89.660156 118.394531 89.660156 Z M 118.394531 89.660156 " fill-opacity="1" fill-rule="nonzero"/></g></svg>